<svg xmlns="http://www.w3.org/2000/svg" viewBox="0 0 512 512" width="512" height="512">
  <defs>
    <linearGradient id="bg" x1="0%" y1="0%" x2="100%" y2="100%">
      <stop offset="0%" stop-color="#fa2d48"/>
      <stop offset="60%" stop-color="#7928ca"/>
      <stop offset="100%" stop-color="#1ed760"/>
    </linearGradient>
    <filter id="shadow" x="-20%" y="-20%" width="140%" height="140%">
      <feDropShadow dx="0" dy="16" stdDeviation="20" flood-opacity="0.5"/>
    </filter>
  </defs>
  <rect width="512" height="512" rx="128" fill="url(#bg)"/>
  <circle cx="256" cy="256" r="180" fill="rgba(0,0,0,0.25)"/>
  <!-- Musical Note & Cast Wave Motif -->
  <path d="M220 140v170c-9-5-20-8-32-8-35 0-64 29-64 64s29 64 64 64 64-29 64-64V210h96v70c-9-5-20-8-32-8-35 0-64 29-64 64s29 64 64 64 64-29 64-64V140H220z" fill="#ffffff" filter="url(#shadow)"/>
</svg>
